<svg width="58" height="58" fill="none" xmlns="http://www.w3.org/2000/svg"><path d="M46.179 8.168C52.174 13.125 56 20.616 56 29c0 14.903-12.085 27-27.008 27C14.069 56 2 43.903 2 29S14.085 2 29.008 2c1.865 0 3.683.191 5.437.542" stroke="#fff" stroke-width="4" stroke-miterlimit="10" stroke-linecap="round" stroke-linejoin="round"/><path d="M19.42 25.516a2.613 2.613 0 100-5.226 2.613 2.613 0 000 5.226zM38.58 25.516a2.613 2.613 0 100-5.226 2.613 2.613 0 000 5.226z" fill="#fff"/><path d="M16.806 38.58c2.62-2.626 7.12-4.354 12.233-4.354 5.066 0 9.52 1.7 12.154 4.272" stroke="#fff" stroke-width="4" stroke-miterlimit="10" stroke-linecap="round"/></svg>