<svg width="61" height="86" fill="none" xmlns="http://www.w3.org/2000/svg"><path fill-rule="evenodd" clip-rule="evenodd" d="M25.99 1.952c2.435-2.603 6.585-2.603 9.02 0l3.05 3.26a2.061 2.061 0 001.9.613l4.398-.858c3.511-.685 6.869 1.737 7.298 5.264l.538 4.417c.085.7.529 1.307 1.173 1.604l4.066 1.872c3.246 1.495 4.529 5.414 2.788 8.518l-2.181 3.887a2.024 2.024 0 000 1.982l2.18 3.887c1.742 3.104.46 7.022-2.787 8.517l-4.066 1.873a2.038 2.038 0 00-1.173 1.604l-.538 4.417c-.43 3.527-3.787 5.949-7.298 5.264l-4.398-.858a2.061 2.061 0 00-1.9.613l-3.05 3.26c-2.435 2.603-6.585 2.603-9.02 0l-3.05-3.26a2.061 2.061 0 00-1.9-.613l-4.398.858c-3.511.684-6.869-1.737-7.298-5.264l-.537-4.417a2.038 2.038 0 00-1.174-1.604l-4.066-1.872C.321 43.42-.962 39.502.78 36.398l2.181-3.887a2.024 2.024 0 000-1.982L.78 26.642c-1.742-3.104-.46-7.023 2.787-8.518l4.066-1.872a2.038 2.038 0 001.174-1.604l.537-4.417c.43-3.527 3.787-5.949 7.298-5.264l4.398.858a2.061 2.061 0 001.9-.613l3.05-3.26zm6.014 2.773l3.05 3.26a6.184 6.184 0 005.697 1.838l4.398-.858a2.05 2.05 0 012.433 1.755l.537 4.417a6.115 6.115 0 003.521 4.81l4.066 1.873a2.03 2.03 0 01.929 2.84l-2.18 3.887a6.072 6.072 0 000 5.946l2.18 3.887a2.03 2.03 0 01-.93 2.84l-4.065 1.872a6.115 6.115 0 00-3.521 4.811l-.537 4.417a2.05 2.05 0 01-2.433 1.755l-4.398-.858a6.184 6.184 0 00-5.697 1.838l-3.05 3.26a2.062 2.062 0 01-3.007 0l-3.05-3.26a6.184 6.184 0 00-5.698-1.838l-4.398.858a2.05 2.05 0 01-2.433-1.755l-.537-4.417a6.115 6.115 0 00-3.521-4.811L5.294 41.22a2.03 2.03 0 01-.929-2.84l2.18-3.887a6.072 6.072 0 000-5.946l-2.18-3.888a2.03 2.03 0 01.93-2.839l4.065-1.872a6.115 6.115 0 003.521-4.811l.537-4.417a2.05 2.05 0 012.433-1.755l4.398.858a6.184 6.184 0 005.697-1.838l3.05-3.26a2.062 2.062 0 013.008 0z" fill="#fff"/><path d="M19.728 65.197a2.045 2.045 0 00-2.052-2.037 2.045 2.045 0 00-2.052 2.037v16.28c0 3.629 4.42 5.447 7.006 2.88l7.358-7.305 7.359 7.305c2.585 2.567 7.006.749 7.006-2.88v-16.28A2.045 2.045 0 0042.3 63.16a2.045 2.045 0 00-2.052 2.037v16.28L32.89 74.17a4.125 4.125 0 00-5.804 0l-7.359 7.305V65.197zM37.862 28.665a2.026 2.026 0 000-2.881 2.063 2.063 0 00-2.902 0L29.13 31.57l-2.27-2.254a2.063 2.063 0 00-2.902 0 2.027 2.027 0 000 2.88l5.172 5.136 8.73-8.667z" fill="#fff"/><path fill-rule="evenodd" clip-rule="evenodd" d="M29.988 48.835c9.634 0 17.443-7.752 17.443-17.315 0-9.563-7.81-17.316-17.442-17.316-9.634 0-17.443 7.753-17.443 17.316 0 9.563 7.81 17.315 17.442 17.315zm0-4.074c7.367 0 13.339-5.928 13.339-13.241s-5.972-13.241-13.338-13.241c-7.367 0-13.339 5.928-13.339 13.24 0 7.314 5.972 13.242 13.338 13.242z" fill="#fff"/></svg>