<svg width="319" height="461" fill="none" xmlns="http://www.w3.org/2000/svg"><path d="M152.526 233.747c-5.509 14.152-11.018 28.503-12.165 43.578-2.464 36.779 6.656 73.005 15.578 108.492 0 .185.184.185.184.369a1.454 1.454 0 00-.779 1.888c.198.483.637.809 1.147.88a224.455 224.455 0 0089.869 4.969c10.069-1.661 21.087-3.492 25.264-13.244 4.744-11.214 6.458-25.196 8.554-36.964 6.273-37.872 7.605-75.943-.382-110.692-34.37 31.442-96.115 38.241-127.27.724z" fill="#299791"/><path opacity=".25" d="M295.149 442.672c7.789 0 17.673 2.016 21.469 6.061 3.795 4.046 1.713 11.583-18.807 11.583s-153.511 1.846-168.139-1.845c-14.629-3.691-18.056-11.029-28.309-9.198a336.033 336.033 0 01-47.88 4.23c-15.394 0-48.447-2.016-48.447-9.199 0-7.182 23.182-9.184 29.824-9.184 6.642 0 53.205.554 62.693.554s197.596 6.998 197.596 6.998z" fill="#221F1F"/><path d="M85.12 427.736c3.228-.369 20.888.554 24.116 1.476 4.943 1.477 5.892 5.508 7.591 9.554a21.27 21.27 0 008.922 10.106c6.457 3.677 14.43 4.046 21.837 4.046 33.803.554 67.607.923 101.41 1.476 14.813.185 29.626 2.2 43.292-3.307a27.5 27.5 0 0010.451-7.353 20.092 20.092 0 005.325-11.399 108.993 108.993 0 000-30.505 101.718 101.718 0 00-4.942-19.844c-2.096-5.692-3.612-12.492-9.687-15.26-4.744-2.2-10.069-2.385-15.379-2.569-15.946-.369-31.906-.738-47.668-1.292a338.917 338.917 0 00-43.292 1.292c-6.84.738-13.864 1.292-20.321 3.123a112.52 112.52 0 00-18.424 7.168c-3.994 2.016-7.973 4.23-11.769 6.615-1.897 1.107-3.611 2.754-5.509 3.677a10.43 10.43 0 01-4.744.738c-7.973.922-16.144.184-24.117-.554-6.457-.553-13.297-1.476-19.755-.738-6.458.738-13.1 2.938-17.475 7.538a21.67 21.67 0 00-5.892 12.136c-.382 4.585.751 9.17 3.23 13.045a26.684 26.684 0 0013.297 10.107c5.325 2.016-1.515.738 4.178 1.292 2.478.71-3.98-.028 5.324-.568z" fill="#D9B189"/><path d="M308.262 431.044a106.64 106.64 0 00-.184-29.043 101.746 101.746 0 00-4.942-19.845c-2.096-5.692-3.611-12.491-9.687-15.259-4.744-2.201-10.068-2.385-15.379-2.57-15.946-.369-31.906-.738-47.668-1.291a339.084 339.084 0 00-43.291 1.291c-6.84.738-13.865 1.292-20.322 3.123a112.614 112.614 0 00-18.424 7.169c-3.994 2.015-7.973 4.23-11.768 6.615-1.898 1.107-3.612 2.753-5.509 3.676-1.501.61-3.13.866-4.744.738-7.973.923-16.145.185-24.117-.553-3.23-.37-6.458-.554-9.687-.739-12.15 7.169-21.455 18.383-22.984 26.829.184 0 23.55-.554 23.933-.369.949 0 1.897.184 3.045.184 4.56.369 9.304.185 13.864 1.292 10.253 2.385 11.768 9.738 18.806 15.799 4.744 4.23 11.584 4.784 17.858 5.139 25.83 0 46.152.738 72.167.738 1.133 0 1.331 8.091 2.464 8.091h19.175c1.133 0 2.096-8.091 3.229-8.091 21.426-.171 42.895-.909 64.165-2.924z" fill="#FFD4A8"/><path d="M87.4 404.201h-.567c-1.671.128-3.3.625-4.744 1.476-1.898.923-3.796 2.016-5.693 2.939a20.914 20.914 0 01-3.611 5.507 11.047 11.047 0 01-8.922 4.046c-10.82 0-14.048-11.399-9.87-18.198a5.27 5.27 0 00-2.663-2.2c-3.611-1.647-7.222-3.492-10.82-5.139a85.76 85.76 0 01-18.423-10.476c-2.465-1.831-4.56-5.337-7.407-6.246a9.376 9.376 0 00-8.738 1.647 13.548 13.548 0 00-3.61 7.538A42.689 42.689 0 001 395.017a72.49 72.49 0 00.949 11.214 58.727 58.727 0 0010.055 24.074 35.163 35.163 0 0019.174 12.861c8.922 2.385 17.66 4.784 27.162 4.415a57.064 57.064 0 0016.526-3.123c14.431-8.276 14.813-25.367 12.533-40.257z" fill="#FBCE92" stroke="#CC9C5C" stroke-width=".75"/><path d="M74.484 405.791c-2.663 0-57.737-28.674-57.737-28.674s4.56 6.43 7.973 8.815c2.096 1.476 22.602 12.492 25.264 13.599 2.663 1.107 2.663 2.938 2.663 2.938s-5.51 13.414 7.59 17.275c13.1 3.861 17.66-7.906 18.807-9.737 1.147-1.831 4.744-2.201 5.891-5.692a12.647 12.647 0 013.045-6.8c2.662-2.754 7.789-6.984 9.502-12.86-4.942-.37-10.069-.37-10.069-.37L74.88 401.376l-.396 4.415z" fill="#FFD4A8" stroke="#E0B883"/><path d="M79.993 399.616a21.684 21.684 0 00-1.331 6.43c.028.497-.028.994-.184 1.477-.722.326-1.416.695-2.082 1.107a20.912 20.912 0 01-3.611 5.507 11.047 11.047 0 01-8.922 4.046c-10.82 0-14.048-11.399-9.87-18.198a5.328 5.328 0 00-2.663-2.2c-3.611-1.647-7.222-3.492-10.82-5.139a85.719 85.719 0 01-18.423-10.476c-1.714-1.476-3.413-3.676-5.325-5.138a31.272 31.272 0 019.87-9.923 76.978 76.978 0 0115.196-7.537c3.795-1.476 5.693-5.877 8.355-8.645 1.515-1.476 4.178-4.23 6.458-2.385.949.739 1.515 2.016 2.464 2.754 1.713 1.477 3.045 2.385 5.126 1.477 1.133-.369 3.045-1.477 4.178-.554.765.738 0 2.2.566 2.938.95.923 1.714.185 2.082-.738.383-1.476-.184-3.123 1.714-3.492 1.133-.184 2.082 0 3.229-.184.354 0 .694-.142.948-.369 3.612-1.292 7.591-3.677 10.253.184 1.714 2.385 1.714 6.615 2.28 9.369.765 3.861 1.714 7.722 2.28 11.583 1.133 5.692 1.898 11.583-.764 16.906-2.465 4.386-7.775 7.154-11.004 11.2z" fill="#FFD4A8"/><path d="M45.227 362.667a7.833 7.833 0 012.096 2.753c.481.98.807 2.03.948 3.123a10.942 10.942 0 01-1.33 6.43.58.58 0 01-.766.185c-.184 0-.184-.185-.184-.369a14.583 14.583 0 00-.184-2.938c0-.923-.184-1.832-.184-2.939a33.769 33.769 0 00-1.133-5.692c0-.184 0-.553.383-.553.17-.185.354-.185.354 0z" fill="#D9B189"/><path d="M239.097 288.837a19.124 19.124 0 00-10.635.739 17.034 17.034 0 00-7.222 5.152c-2.096 2.57-2.464 5.338-3.045 8.461a108.148 108.148 0 01-2.28 11.398c-.382 1.845-.949 3.677-1.331 5.706-.383 1.661-1.516 3.492-1.714 5.338a32.826 32.826 0 00-.184 4.414 3.695 3.695 0 01-3.413 3.677l-.566 4.415a1.24 1.24 0 00-1.346 1.121c-.014.113 0 .241.015.355a9.249 9.249 0 01-1.332 5.522 1.175 1.175 0 00-1.515 0c-4.744 2.938-9.304 6.245-13.68 9.567-2.662 2.03-7.024 4.599-8.171 8.091a3.639 3.639 0 00-.567 2.03 4.007 4.007 0 002.082 3.307c.609.44 1.346.696 2.096.739a6.02 6.02 0 003.229-.923 6.94 6.94 0 002.464-1.661c.184 0 .184-.184.382-.184a1.668 1.668 0 011.714-.554 27.256 27.256 0 00-2.847 5.153 16.78 16.78 0 00-1.515 5.152 2.045 2.045 0 000 1.477v.553c.113.81.439 1.562.949 2.201 1.714 1.845 3.994.922 5.325-.739 2.464-3.122 4.177-7.537 6.075-11.398a1.674 1.674 0 001.133-1.107c.184-1.477 2.096-1.661 2.464-.554-.184 2.754-.566 5.522-.765 8.46 0 .369 0 .554.184.738-.382 2.754.184 5.707 3.796 5.338 4.744-.554 5.707-9.752 6.273-12.875.269-.951.397-1.945.383-2.938.198-.199.325-.455.382-.739 3.993-2.2 6.075-2.029 6.273.739.312.624.439 1.32.383 2.015 0 1.846-.567 3.677-.567 5.522 0 2.2.567 4.599 3.045 5.153 5.509 1.292 5.127-6.615 4.744-11.583.156-.341.227-.724.184-1.107 0-.37-.184-.739-.184-1.108v-1.845a2.557 2.557 0 013.272-1.533c.056.014.099.043.155.057a7.275 7.275 0 013.229 3.861c1.133 2.385 0 5.522 1.714 7.537a3.04 3.04 0 003.611.923c.765 0 1.331-.185 1.515-1.107a5.905 5.905 0 00.567-4.784c0-.184-.185-.369-.383-.554-1.331-8.091-7.973-13.783-14.062-19.305v-2.2a94.837 94.837 0 014.376-14.706 32.256 32.256 0 013.044-8.091c2.847-7.907 6.84-15.444 10.452-23.166.764-2.03 2.096-3.677.566-5.891a7.773 7.773 0 00-3.795-2.569 12.787 12.787 0 00-4.957-1.69z" fill="#F3BA94" stroke="#D79C76"/><path d="M232.073 349.336a13.363 13.363 0 00-4.942-7.537c-3.229-2.385-7.222-3.492-10.069-6.246a34.397 34.397 0 01-3.413-10.291c-.949-5.153-2.28-10.292-3.427-15.629a35.873 35.873 0 00-1.133-6.615 27.931 27.931 0 00-3.993-6.43 19.49 19.49 0 00-11.967-6.984 13.6 13.6 0 00-9.884 2.754c-2.479 2.2-2.847 5.877-2.847 8.999.184 7.353 3.427 14.153 6.274 20.782.382 1.107.948 2.03 1.331 3.123 2.464 6.984 5.126 13.059 2.464 20.966a20.416 20.416 0 00-.949 3.69c-.566 3.677.184 7.353.184 11.03a33.034 33.034 0 01-.382 4.415 9.465 9.465 0 001.331 4.783.694.694 0 00.566.185 36.172 36.172 0 002.096-3.492c.765-2.754 3.229-7.169 3.994-7.353.765-.185 2.464 1.661 3.045 2.938.764 1.476.382 2.569.566 4.23 0 1.477.949 3.123 2.847 2.57 2.095-.554 2.095-3.123 2.846-4.784.765-1.845 1.515-4.599 3.045-4.968 1.331-.369 3.611 3.676 5.126 6.43a4.616 4.616 0 004.744 2.754 3.516 3.516 0 003.045-3.861 48.23 48.23 0 01.184-5.153v-.185a2.905 2.905 0 012.847-2.938c.184 0 .382.185.566.185.354.213.609.539.765.922a6.84 6.84 0 01.764 1.661c.397.951.723 1.931.949 2.938a9.085 9.085 0 00.949 3.861.695.695 0 01.567.185 6.87 6.87 0 002.662-1.107 21.93 21.93 0 002.096-2.03 6.265 6.265 0 001.133-2.2 38.4 38.4 0 00-3.98-11.598z" fill="#F3BA94" stroke="#D79C76"/><path d="M301.224 121.323a54.566 54.566 0 00-14.062-12.875 61.46 61.46 0 00-14.629-7.722 130.429 130.429 0 00-28.309-6.075 46.416 46.416 0 00-6.84-1.108 5.26 5.26 0 00-3.045.554h-.382a5.391 5.391 0 00-1.714.184 70.2 70.2 0 00-20.321-4.23 55.926 55.926 0 00-21.285 3.677 6.643 6.643 0 00-3.795 0c-10.253 3.676-21.469 5.877-31.538 9.922-8.554 3.492-17.674 7.538-23.367 14.905-6.273 7.722-7.604 16.551-6.089 26.104a102.226 102.226 0 009.686 32.734c5.509 15.813 14.063 30.888 21.087 45.963-.184.738-.567 1.477-.765 2.385-.949 2.569-7.222 6.615-4.376 11.952a64.901 64.901 0 0015.96 14.337c.765 3.123 1.516 6.061 2.096 9.383-.184.369 0 .738.184 1.107 2.663 17.843 5.891 36.41 12.349 53.331 1.331 3.492 29.64-2.201 28.875-8.276-.566-4.599-2.095-10.291-2.464-14.891-1.897-10.106-1.133-17.289-2.28-27.58 6.061.61 12.165.681 18.24.184-.566 3.308-1.331 6.615-1.897 9.752-1.516 7.907-3.611 15.998-3.611 24.089 0 1.107 30.022-.738 30.206-1.107 6.656-13.06 7.024-16.183 12.731-29.426.383-1.477 5.693-13.244 7.605-17.843a73.258 73.258 0 0011.216-8.816c1.133-2.753-.184-7.168-2.096-11.214 2.096-4.414 3.993-8.091 5.126-9.922 4.178-6.799 5.892-8.645 9.687-15.628.566-1.108 8.355-15.814 8.738-16.921a3.32 3.32 0 00.382-1.476c.382-2.569 1.898-4.968 2.28-7.538a87.657 87.657 0 011.898-9.567 75.575 75.575 0 003.228-17.29c.227-9.908-1.671-22.598-8.709-31.058z" fill="#A1D9D5"/><path d="M174.88 173.842c5.324 9.737 10.451 19.489 15.393 29.426 1.133 2.384 2.464 4.968 3.612 7.537a31.325 31.325 0 011.515 3.861l1.133 4.046 4.177 15.997 3.796 15.998 1.713 8.091c.184 1.292.567 2.754.765 4.046.156.724.226 1.462.184 2.2v2.03c0 5.522.184 11.029.566 16.367.185 5.522.567 11.029.949 16.367-1.515-10.845-2.28-21.875-2.846-32.919v-2.029c0-.739-.184-1.292-.184-2.03-.184-1.292-.567-2.754-.765-4.046l-1.898-8.091-3.993-15.998-3.994-15.997-.949-4.046a30.713 30.713 0 00-1.515-3.677l-3.427-7.537-14.232-29.596zM264.333 174.548l-16.724 28.688-4.178 7.169a32.027 32.027 0 00-1.714 3.676l-1.331 3.861-5.325 15.629-5.31 15.629-2.662 7.906-1.133 3.861a8.202 8.202 0 00-.383 1.846l-.382 2.029-2.847 16.183c-.948 5.337-1.897 10.845-3.044 16.182.566-5.522 1.331-10.845 2.096-16.367l2.28-16.367.184-2.03c.184-.738.184-1.476.382-2.2.382-1.292.765-2.754 1.133-4.045l2.464-7.907 5.339-15.629 5.509-15.628 1.515-3.861c.567-1.292 1.331-2.57 1.898-3.861 1.331-2.385 2.846-4.784 4.376-7.169 5.693-9.028 11.584-18.212 17.857-27.595z" fill="#86C6C1"/><path d="M199.503 23.818c.312-12.89 11.358-23.11 24.684-22.812 13.326.313 23.876 10.987 23.565 23.876-.312 12.89-11.358 23.11-24.684 22.812-13.326-.299-23.862-10.987-23.565-23.876z" fill="#6A2B20" stroke="#602015"/><path d="M248.033 45.65a34.33 34.33 0 00-3.044-8.83c-3.413-5.337-6.274-11.03-11.018-15.444-5.325-4.968-12.533-7.537-19.571-9.014-.567-.184-1.133-.184-1.898-.369h-.566c-4.56-.184-9.305-.922-13.865.185a48.628 48.628 0 00-10.833 4.045 52.274 52.274 0 00-19.005 18.752c-3.993 6.984-10.069 21.15-3.795 28.319a4.996 4.996 0 005.126 1.845c3.229 2.939 8.172 4.415 12.349 5.153 8.554 1.476 17.858.923 25.845 3.86 8.171 2.94 14.062 8.277 19.189 14.891 3.229 4.23 8.553 7.722 14.062 4.784a5.858 5.858 0 003.045-5.153 46.46 46.46 0 00-1.133-5.89 6.274 6.274 0 001.331-2.2c4.149-11.768 6.061-22.982 3.781-34.934z" fill="#6A2B20" stroke="#602015"/><path d="M253.346 109.243a13.068 13.068 0 00-9.503-5.706 17.269 17.269 0 01-4.178-2.939 25.429 25.429 0 01-4.375-6.615c-1.332-2.938-5.892-3.676-8.356-2.2a5.213 5.213 0 00-2.846 4.6c-3.427.922-6.656 4.229-8.936 6.245-4.942 4.599-10.834 9.922-11.4 16.367-3.229 1.292-5.509 4.784-3.229 8.46 4.942 8.091 7.789 27.765 20.52 27.027a8.995 8.995 0 003.229-.738c11.202-2.03 19.571-18.198 24.315-25.92 3.243-4.968 8.752-12.506 4.759-18.581z" fill="#E39F72"/><path d="M241.513 66.25c-3.611 3.108-7.165 4.599-10.394 10.844a6.51 6.51 0 01-3.045 2.939l-.184.184a12.275 12.275 0 00-3.229-2.938c-2.28-1.292-5.325-1.477-7.987-2.016a52.319 52.319 0 01-11.782-4.045c-5.509-2.754-11.018-6.984-17.093-8.83-5.509-1.66-10.636-.738-16.144.554a26.596 26.596 0 01-8.356-2.03 38.66 38.66 0 000 8.091c.014 2.4.213 4.798.567 7.169.566 2.384 2.662 4.23 3.611 6.43.184 6.615 1.133 13.428 4.376 19.121a27.976 27.976 0 002.662 3.861v1.107c.085 3.293 2.79 5.919 6.075 5.876h.567c.949.739 1.898 1.477 3.045 2.201a5.643 5.643 0 001.713 3.307c.467.412.977.781 1.515 1.107 5.892 14.522 23.749 4.599 31.722-2.569 7.789-6.984 14.063-15.998 16.725-25.92a9.212 9.212 0 002.096-.738c.184 0 2.662-1.845 2.28-1.476a12.221 12.221 0 004.56-7.169c.949-5.153-.142-6.927 1.572-12.08.779-1.277-1.261-6.09-4.872-2.98z" fill="#E39F72" stroke="#B2764F"/><path d="M240.805 88.493l-.184.184c.184 0 .184 0 .184-.184z" fill="url(#paint0_linear)"/><path d="M181.456 113.96c2.309.454 4.674.638 7.025.553a50.946 50.946 0 007.038-1.292c.297 0 .581.142.765.37a.67.67 0 01-.184.553 13.42 13.42 0 01-7.421 3.123 11.433 11.433 0 01-7.789-2.214.562.562 0 010-.738c.198-.171.382-.355.566-.355zM179.176 112.114a42.405 42.405 0 005.892-2.569 6.122 6.122 0 003.427-4.23c0-.369.382-.554.764-.369a.41.41 0 01.383.369 4.677 4.677 0 01-.383 3.861 5.866 5.866 0 01-2.86 2.754 11.46 11.46 0 01-3.611 1.107c-1.19.185-2.408.185-3.612 0-.382 0-.566-.369-.566-.738a.693.693 0 00.566-.185zM163.986 80.126c1.897 1.476 3.611 2.754 5.324 4.045.935.554 1.898 1.292 2.648 1.647.411.27.864.454 1.332.554.184 0 .382.184.566.184.425.071.821.27 1.133.554a3.74 3.74 0 011.515 2.385 6.877 6.877 0 010 2.015c-.184 1.292-.566 2.2-.764 3.308a42.9 42.9 0 01-2.28 6.43c-.185.369-.383.369-.765.369-.184 0-.382-.369-.382-.553.184-2.2.566-4.6.948-6.615l.567-3.308v-1.263c.014-.37-.17-.37-.17-.554-.184 0 0 0-.383-.184a1.44 1.44 0 01-.948-.37 7.99 7.99 0 01-1.714-.922 11.686 11.686 0 01-3.045-2.2 31.544 31.544 0 01-4.56-5.337c-.184-.185 0-.554.184-.739.411.554.595.554.794.554z" fill="#B2764F"/><path d="M174.818 90.051a6.128 6.128 0 01-5.892 1.476 5.687 5.687 0 01-4.375-4.045c0-.298.141-.568.382-.738h.382a17.73 17.73 0 004.178 2.015 12.33 12.33 0 004.56.185.495.495 0 01.566.412c0 .042.015.085 0 .141.383.37.199.554.199.554zM189.816 92.446c1.076.525 2.238.894 3.427 1.107 1.133.184 2.294.184 3.427 0a45.799 45.799 0 007.393-1.845c.382 0 .566 0 .764.369a.663.663 0 01-.184.553 13.467 13.467 0 01-7.604 3.663 9.778 9.778 0 01-4.56-.54 6.274 6.274 0 01-3.413-2.768c-.184-.184 0-.553.184-.738 0 .184.184.184.566.199zM183.17 88.4a36.265 36.265 0 0112.533-3.676 33.912 33.912 0 0112.915 1.107c.383 0 .383.369.383.738 0 .185-.383.37-.567.37-4.177 0-8.355.184-12.533.553-4.177.369-8.171 1.107-12.348 1.845-.383 0-.567-.184-.567-.369a.356.356 0 01.043-.497.268.268 0 01.141-.07z" fill="#B2764F"/><defs><linearGradient id="paint0_linear" x1="240.603" y1="88.585" x2="240.844" y2="88.585" gradientUnits="userSpaceOnUse"><stop stop-color="#FCD9CE"/><stop offset=".025" stop-color="#FCD7CC"/><stop offset=".255" stop-color="#FBCCBE"/><stop offset=".534" stop-color="#FBC6B5"/><stop offset="1" stop-color="#FAC4B3"/></linearGradient></defs></svg>