<svg width="131" height="120" fill="none" xmlns="http://www.w3.org/2000/svg"><path fill-rule="evenodd" clip-rule="evenodd" d="M66.5 0C56.49 0 48.375 8.059 48.375 18v9.6c0 4.64-3.787 8.4-8.458 8.4-8.676 0-15.709 6.984-15.709 15.6V102c0 9.941 8.115 18 18.125 18H99.49c8.224 0 15.418-5.5 17.522-13.396l12.788-48C132.843 47.185 124.173 36 112.278 36H84.625V18c0-9.941-8.115-18-18.125-18zm-6.042 18c0-3.314 2.705-6 6.042-6 3.337 0 6.042 2.686 6.042 6v18c0 6.627 5.41 12 12.083 12h27.653c3.965 0 6.855 3.728 5.841 7.535l-12.789 48c-.701 2.632-3.099 4.465-5.84 4.465H42.333c-3.336 0-6.041-2.686-6.041-6V51.6c0-1.988 1.623-3.6 3.625-3.6 11.344 0 20.541-9.133 20.541-20.4V18z" fill="#fff"/><path d="M12.125 48c0-3.314-2.705-6-6.042-6-3.336 0-6.041 2.686-6.041 6v60c0 3.314 2.705 6 6.041 6 3.337 0 6.042-2.686 6.042-6V48z" fill="#fff"/></svg>